<?xml version="1.0" encoding="UTF-8" standalone="no"?>
<!-- Created with Inkscape (http://www.inkscape.org/) -->

<svg
   xmlns:dc="http://purl.org/dc/elements/1.1/"
   xmlns:cc="http://creativecommons.org/ns#"
   xmlns:rdf="http://www.w3.org/1999/02/22-rdf-syntax-ns#"
   xmlns:svg="http://www.w3.org/2000/svg"
   xmlns="http://www.w3.org/2000/svg"
   xmlns:sodipodi="http://sodipodi.sourceforge.net/DTD/sodipodi-0.dtd"
   xmlns:inkscape="http://www.inkscape.org/namespaces/inkscape"
   width="3.3866665mm"
   height="3.3866665mm"
   viewBox="0 0 12 12"
   id="svg3351"
   version="1.1"
   inkscape:version="0.91 r13725"
   sodipodi:docname="timing.svg">
  <defs
     id="defs3353" />
  <sodipodi:namedview
     id="base"
     pagecolor="#ffffff"
     bordercolor="#666666"
     borderopacity="1.0"
     inkscape:pageopacity="0.0"
     inkscape:pageshadow="2"
     inkscape:zoom="11.2"
     inkscape:cx="-2.2642829"
     inkscape:cy="0.53487212"
     inkscape:document-units="px"
     inkscape:current-layer="layer1"
     showgrid="false"
     fit-margin-top="0"
     fit-margin-left="0"
     fit-margin-right="0"
     fit-margin-bottom="0"
     inkscape:window-width="1440"
     inkscape:window-height="876"
     inkscape:window-x="0"
     inkscape:window-y="24"
     inkscape:window-maximized="1" />
  <metadata
     id="metadata3356">
    <rdf:RDF>
      <cc:Work
         rdf:about="">
        <dc:format>image/svg+xml</dc:format>
        <dc:type
           rdf:resource="http://purl.org/dc/dcmitype/StillImage" />
        <dc:title></dc:title>
      </cc:Work>
    </rdf:RDF>
  </metadata>
  <g
     inkscape:label="Layer 1"
     inkscape:groupmode="layer"
     id="layer1"
     transform="translate(-15.07143,-1024.9336)">
    <g
       id="g3"
       transform="matrix(-0.12350761,0,0,0.12350761,27.071429,1024.9336)">
      <g
         id="g5">
        <path
           d="M 48.58,0 C 21.793,0 0,21.793 0,48.58 0,75.367 21.793,97.16 48.58,97.16 75.367,97.16 97.16,75.367 97.16,48.58 97.16,21.793 75.367,0 48.58,0 Z m 0,86.823 c -21.087,0 -38.244,-17.155 -38.244,-38.243 0,-21.088 17.157,-38.243 38.244,-38.243 21.087,0 38.244,17.155 38.244,38.243 0,21.088 -17.157,38.243 -38.244,38.243 z"
           id="path7"
           inkscape:connector-curvature="0"
           style="fill:#7e7e7e" />
        <path
           d="m 73.898,47.08 -21.832,0 0,-26.25 c 0,-2.209 -1.791,-4 -4,-4 -2.209,0 -4,1.791 -4,4 l 0,30.25 c 0,2.209 1.791,4 4,4 l 25.832,0 c 2.209,0 4,-1.791 4,-4 0,-2.209 -1.791,-4 -4,-4 z"
           id="path9"
           inkscape:connector-curvature="0"
           style="fill:#7e7e7e" />
      </g>
    </g>
  </g>
</svg>
